<svg xmlns="http://www.w3.org/2000/svg" width="103" height="32" viewBox="0 0 103 32" fill="none">
<path d="M12.0546 0.0231803C8.68409 0.391616 5.66329 2.28461 3.66638 5.27973C3.00816 6.26752 2.50575 7.3093 2.11782 8.48449C1.70445 9.73271 1.50412 10.8539 1.43417 12.261C1.41827 12.6072 1.39919 12.8962 1.39601 12.8994C1.38964 12.9057 1.29426 12.8898 1.17978 12.8644C1.06531 12.839 0.852265 12.8104 0.702814 12.7978C0.394375 12.7787 0.279903 12.8135 0.168609 12.9693C0.0636765 13.1185 0.0541371 13.2487 0.130452 13.4075C0.219487 13.5917 0.356217 13.6617 0.671016 13.6933C1.06531 13.7315 1.45325 13.8491 2.02561 14.0999C2.32451 14.2301 2.70608 14.3827 2.87779 14.4366C3.44697 14.6208 4.28008 14.6971 4.95101 14.6335C5.67919 14.5637 6.02578 14.462 6.9829 14.0428C7.70789 13.7251 8.24528 13.6362 9.17696 13.6807C9.69844 13.7061 10.0419 13.7919 10.5602 14.0174C11.3169 14.3509 11.7462 14.5001 12.1278 14.5669C12.627 14.6526 13.2344 14.678 13.6763 14.6335C14.4236 14.5574 14.7957 14.4461 15.775 14.011C16.4206 13.7251 17.0756 13.6235 17.9086 13.6776C18.4747 13.7156 18.8213 13.8078 19.4826 14.0999C20.4843 14.5383 20.9454 14.6431 21.8962 14.6431C22.8118 14.6431 23.3366 14.5319 24.1856 14.154C24.9296 13.8205 25.1014 13.7664 25.645 13.6965C26.0266 13.6458 26.1412 13.5822 26.2206 13.3821C26.2779 13.236 26.262 13.1026 26.1666 12.9693C26.033 12.7819 25.8167 12.7469 25.3144 12.8358C24.9011 12.9089 24.9328 12.9311 24.9328 12.5691C24.9328 11.9655 24.8088 10.8031 24.6753 10.1361C23.8581 6.0833 21.3779 2.75151 17.9214 1.06814C16.8848 0.563128 15.8673 0.248688 14.6558 0.0644704C14.2646 0.00729951 12.4776 -0.0244621 12.0546 0.0231803ZM13.8958 1.13166C16.217 1.3127 18.4397 2.37036 20.0646 4.07279C21.9438 6.03566 22.9009 8.6274 22.742 11.3081C22.6942 12.0672 22.6243 12.5277 22.4367 13.271C22.3349 13.6617 22.2523 13.8427 22.1218 13.9538C21.931 14.1126 21.8421 14.1317 21.3397 14.1126C20.6147 14.084 20.2204 13.9761 19.2379 13.5377C18.6018 13.2551 18.0327 13.1408 17.2855 13.1376C16.5604 13.1376 16.004 13.2487 15.3744 13.5187C14.5444 13.8776 14.3791 13.9411 14.042 14.0206C13.7177 14.0967 13.6382 14.1031 12.945 14.1063C11.9275 14.1063 11.6858 14.0554 10.7096 13.6267C10.0768 13.3471 9.75568 13.2487 9.26599 13.1852C8.35975 13.0677 7.47258 13.1725 6.72534 13.487C5.49794 14.0079 5.23402 14.0809 4.5281 14.1126L4.13699 14.1317L4.0734 13.9888C4.03842 13.9093 3.95892 13.6585 3.89851 13.4361C3.61551 12.4071 3.51375 11.5844 3.54237 10.5013C3.56462 9.67872 3.61551 9.24993 3.7745 8.57977C4.35003 6.14365 5.7873 4.06962 7.85735 2.69751C9.63485 1.51598 11.7621 0.966501 13.8958 1.13166Z" fill="white"/>
<path d="M12.0546 0.0231803C8.68409 0.391616 5.66329 2.28461 3.66638 5.27973C3.00816 6.26752 2.50575 7.3093 2.11782 8.48449C1.70445 9.73271 1.50412 10.8539 1.43417 12.261C1.41827 12.6072 1.39919 12.8962 1.39601 12.8994C1.38964 12.9057 1.29426 12.8898 1.17978 12.8644C1.06531 12.839 0.852265 12.8104 0.702814 12.7978C0.394375 12.7787 0.279903 12.8135 0.168609 12.9693C0.0636765 13.1185 0.0541371 13.2487 0.130452 13.4075C0.219487 13.5917 0.356217 13.6617 0.671016 13.6933C1.06531 13.7315 1.45325 13.8491 2.02561 14.0999C2.32451 14.2301 2.70608 14.3827 2.87779 14.4366C3.44697 14.6208 4.28008 14.6971 4.95101 14.6335C5.67919 14.5637 6.02578 14.462 6.9829 14.0428C7.70789 13.7251 8.24528 13.6362 9.17696 13.6807C9.69844 13.7061 10.0419 13.7919 10.5602 14.0174C11.3169 14.3509 11.7462 14.5001 12.1278 14.5669C12.627 14.6526 13.2344 14.678 13.6763 14.6335C14.4236 14.5574 14.7957 14.4461 15.775 14.011C16.4206 13.7251 17.0756 13.6235 17.9086 13.6776C18.4747 13.7156 18.8213 13.8078 19.4826 14.0999C20.4843 14.5383 20.9454 14.6431 21.8962 14.6431C22.8118 14.6431 23.3366 14.5319 24.1856 14.154C24.9296 13.8205 25.1014 13.7664 25.645 13.6965C26.0266 13.6458 26.1412 13.5822 26.2206 13.3821C26.2779 13.236 26.262 13.1026 26.1666 12.9693C26.033 12.7819 25.8167 12.7469 25.3144 12.8358C24.9011 12.9089 24.9328 12.9311 24.9328 12.5691C24.9328 11.9655 24.8088 10.8031 24.6753 10.1361C23.8581 6.0833 21.3779 2.75151 17.9214 1.06814C16.8848 0.563128 15.8673 0.248688 14.6558 0.0644704C14.2646 0.00729951 12.4776 -0.0244621 12.0546 0.0231803ZM13.8958 1.13166C16.217 1.3127 18.4397 2.37036 20.0646 4.07279C21.9438 6.03566 22.9009 8.6274 22.742 11.3081C22.6942 12.0672 22.6243 12.5277 22.4367 13.271C22.3349 13.6617 22.2523 13.8427 22.1218 13.9538C21.931 14.1126 21.8421 14.1317 21.3397 14.1126C20.6147 14.084 20.2204 13.9761 19.2379 13.5377C18.6018 13.2551 18.0327 13.1408 17.2855 13.1376C16.5604 13.1376 16.004 13.2487 15.3744 13.5187C14.5444 13.8776 14.3791 13.9411 14.042 14.0206C13.7177 14.0967 13.6382 14.1031 12.945 14.1063C11.9275 14.1063 11.6858 14.0554 10.7096 13.6267C10.0768 13.3471 9.75568 13.2487 9.26599 13.1852C8.35975 13.0677 7.47258 13.1725 6.72534 13.487C5.49794 14.0079 5.23402 14.0809 4.5281 14.1126L4.13699 14.1317L4.0734 13.9888C4.03842 13.9093 3.95892 13.6585 3.89851 13.4361C3.61551 12.4071 3.51375 11.5844 3.54237 10.5013C3.56462 9.67872 3.61551 9.24993 3.7745 8.57977C4.35003 6.14365 5.7873 4.06962 7.85735 2.69751C9.63485 1.51598 11.7621 0.966501 13.8958 1.13166Z" fill="white"/>
<path d="M13.6062 2.34175C13.53 2.41797 13.5268 2.44338 13.5077 2.95792C13.4409 4.77786 12.8431 6.3183 11.7811 7.40455C11.3072 7.89051 10.8812 8.19859 10.2579 8.50668C9.79368 8.73854 9.56473 8.82748 9.04324 8.97675C8.13064 9.2372 7.53285 9.3039 6.1401 9.31026C4.92859 9.31026 4.91906 9.31342 4.77279 9.5167C4.58835 9.77714 4.62969 11.0286 4.85864 12.1053C5.02399 12.8866 5.15117 12.9883 5.84119 12.8993C9.20541 12.4642 11.6697 11.1429 13.1134 8.99581C13.9305 7.7857 14.4393 6.26431 14.5697 4.64447C14.6111 4.13311 14.592 2.67525 14.5443 2.51326C14.4997 2.36398 14.3694 2.30998 14.0037 2.28775C13.6921 2.26552 13.6794 2.2687 13.6062 2.34175Z" fill="#E21501"/>
<path d="M11.6094 2.36725C9.76829 2.7198 8.19747 3.55831 6.9351 4.86689C6.21011 5.61965 5.59958 6.55661 5.23391 7.48088C5.06538 7.90331 5.10354 8.10657 5.37382 8.24316C5.53281 8.32573 6.06702 8.37337 6.8397 8.37337C8.37872 8.37337 9.62202 8.02718 10.5314 7.3443C10.8812 7.08068 11.3295 6.61061 11.5585 6.27076C12.1213 5.41954 12.4647 4.22848 12.4775 3.05331C12.4838 2.59593 12.4711 2.55147 12.293 2.4149C12.15 2.30691 11.9942 2.29419 11.6094 2.36725Z" fill="#C71303"/>
<path d="M15.6477 2.71336C15.5746 2.7737 15.5746 2.7737 15.6128 3.11038C15.6572 3.52328 15.6604 4.7461 15.6159 5.19712C15.5301 6.06422 15.2756 7.03612 14.91 7.89686C14.4171 9.05298 13.6889 10.0916 12.6969 11.0444C12.1913 11.5336 11.7397 11.8925 11.1006 12.318C10.4742 12.7342 10.4647 12.7437 10.4647 12.8516C10.4647 12.9724 10.5314 13.02 10.9289 13.1883C11.5966 13.4679 12.1754 13.5822 12.9068 13.5822C13.3264 13.5822 13.8098 13.5345 13.9052 13.4838C13.9911 13.4393 14.1023 13.3154 14.4489 12.8834C15.6413 11.4065 16.3822 9.69139 16.6462 7.7857C16.6747 7.59194 16.7129 7.32198 16.732 7.18223C16.7511 7.04247 16.7734 6.56286 16.7829 6.11821C16.7956 5.43533 16.7893 5.20665 16.732 4.67305C16.6239 3.65668 16.4936 2.97063 16.395 2.89757C16.3441 2.86264 16.0006 2.73559 15.7877 2.67525C15.7463 2.66253 15.6922 2.67843 15.6477 2.71336Z" fill="#F36400"/>
<path d="M17.5743 8.63962C17.9504 6.82318 18.0079 5.80545 17.7188 3.99168C17.7651 3.86682 17.8083 3.82898 17.921 3.82764C18.1452 3.91694 18.2716 4.01178 18.4989 4.26509C18.9314 5.59371 19.0615 6.3482 19.1056 7.71003C19.1096 9.64418 18.9297 10.6948 18.21 12.4947C18.1621 12.5907 18.1249 12.6277 18.0367 12.6587C17.3395 12.6185 16.9476 12.6214 16.2453 12.686C16.0353 12.6288 15.9852 12.5214 15.9853 12.3033C16.8043 11.0213 17.1467 10.215 17.5743 8.63962Z" fill="#FF7800"/>
<path d="M19.4048 12.7351C20.0994 11.0621 20.4017 9.96185 20.1498 6.52476C20.146 6.46448 20.1702 6.44315 20.2357 6.4158C20.3456 6.38624 20.3922 6.39125 20.4362 6.44303C21.2479 7.7553 21.5051 8.51421 21.6682 9.90233C21.7228 11.2767 21.5683 12.0118 21.0665 13.2799C20.9352 13.4332 20.848 13.4708 20.6654 13.4433C20.1688 13.3253 19.9113 13.2421 19.4908 13.062C19.3702 12.947 19.3577 12.8744 19.4048 12.7351Z" fill="#FFA200"/>
<path d="M5.3135 15.9516C4.55353 16.1135 4.18786 16.4947 4.2451 17.0537C4.30233 17.6 4.60759 17.8668 5.58061 18.2193C6.29288 18.4766 6.42643 18.5655 6.42643 18.7688C6.42643 19.169 5.56789 19.1722 5.04322 18.7752C4.91285 18.6736 4.97326 18.6418 4.42952 19.1245C4.01932 19.4866 4.01932 19.4517 4.41044 19.6327C4.90967 19.8646 5.41843 19.9567 6.04168 19.9249C6.77303 19.89 7.27861 19.6295 7.48212 19.1881C7.53935 19.0578 7.55208 18.9753 7.55208 18.7434C7.5489 18.3845 7.47258 18.1875 7.25317 17.9842C7.05603 17.8 6.87796 17.7111 6.2102 17.4697C5.60287 17.2506 5.38982 17.1426 5.33894 17.0251C5.22129 16.771 5.65692 16.5931 6.10845 16.7075C6.32786 16.7646 6.57588 16.9043 6.64266 17.0124C6.66492 17.0474 6.69353 17.076 6.70943 17.076C6.74759 17.076 7.45668 16.4407 7.4694 16.3962C7.48212 16.3454 7.1705 16.1644 6.91611 16.0722C6.46777 15.9071 5.75867 15.853 5.3135 15.9516Z" fill="white"/>
<path d="M0.0222585 16.0342C0.0317979 16.0755 0.111293 16.2978 0.197147 16.5297C0.283001 16.7583 0.352956 16.9585 0.352956 16.9743C0.352956 16.9871 0.365676 17.0157 0.381575 17.0411C0.407013 17.0792 0.429272 17.0665 0.496047 16.9839C0.651857 16.8028 0.804487 16.7456 1.18924 16.7329L1.52947 16.7203V18.2925C1.52947 19.7662 1.53266 19.8679 1.58671 19.8806C1.61534 19.8901 1.67575 19.8933 1.72027 19.8869C1.76478 19.8806 1.99691 19.8742 2.23857 19.8742L2.67421 19.871V18.302V16.7329L2.77914 16.714C2.92223 16.6885 3.35149 16.7456 3.47869 16.8092C3.53275 16.8378 3.62814 16.914 3.6822 16.9743C3.73943 17.0379 3.79032 17.0823 3.79667 17.0729C3.80303 17.0665 3.84754 16.9521 3.89207 16.8219C3.93658 16.6917 4.02243 16.4439 4.08603 16.2724L4.2005 15.9644H2.09866H0L0.0222585 16.0342Z" fill="black"/>
<path d="M0.0222585 16.0342C0.0317979 16.0755 0.111293 16.2978 0.197147 16.5297C0.283001 16.7583 0.352956 16.9585 0.352956 16.9743C0.352956 16.9871 0.365676 17.0157 0.381575 17.0411C0.407013 17.0792 0.429272 17.0665 0.496047 16.9839C0.651857 16.8028 0.804487 16.7456 1.18924 16.7329L1.52947 16.7203V18.2925C1.52947 19.7662 1.53266 19.8679 1.58671 19.8806C1.61534 19.8901 1.67575 19.8933 1.72027 19.8869C1.76478 19.8806 1.99691 19.8742 2.23857 19.8742L2.67421 19.871V18.302V16.7329L2.77914 16.714C2.92223 16.6885 3.35149 16.7456 3.47869 16.8092C3.53275 16.8378 3.62814 16.914 3.6822 16.9743C3.73943 17.0379 3.79032 17.0823 3.79667 17.0729C3.80303 17.0665 3.84754 16.9521 3.89207 16.8219C3.93658 16.6917 4.02243 16.4439 4.08603 16.2724L4.2005 15.9644H2.09866H0L0.0222585 16.0342Z" fill="white"/>
<path d="M7.68552 16.0024C7.70141 16.0246 7.75865 16.1041 7.81589 16.1802C8.01304 16.4376 8.02257 16.5202 8.04484 17.8382C8.06392 18.969 8.0671 19.0356 8.13387 19.1786C8.34374 19.6328 8.83978 19.8869 9.60612 19.925C10.4869 19.9663 11.1197 19.6995 11.3772 19.1786L11.4663 18.9976L11.4759 17.4793L11.4854 15.9644L10.9098 15.9707L10.3343 15.9802L10.3279 17.3619C10.3216 18.6006 10.3152 18.753 10.2675 18.8451C10.188 18.9881 10.0195 19.0801 9.80325 19.0992C9.58067 19.1183 9.43122 19.0611 9.29131 18.9023L9.19274 18.788V17.3777V15.9644H8.42641C7.82543 15.9644 7.66644 15.9739 7.68552 16.0024Z" fill="white"/>
<g filter="url(#filter0_d_18_445)">
<path d="M11.7971 16.2343C11.9147 16.3804 12.0324 16.555 12.0546 16.6218C12.0896 16.714 12.1024 17.1045 12.1151 18.3146L12.1342 19.8869H12.6906H13.2471L13.2629 18.8546L13.2788 17.8224L13.848 18.4893C14.7384 19.528 15.0595 19.8138 15.4029 19.8583L15.5525 19.8806V17.9209V15.9644H14.9801H14.4077L14.4013 16.7965L14.3918 17.6318L13.6763 16.7965L12.9609 15.9644H12.2709H11.5809L11.7971 16.2343Z" fill="white"/>
</g>
<path d="M16.6621 16.0564C16.872 16.3487 16.9037 16.5995 16.7734 16.9585C16.7289 17.0824 16.6526 17.3015 16.6017 17.4413C16.554 17.581 16.341 18.1749 16.1279 18.7594C15.9149 19.3438 15.7432 19.8393 15.7432 19.8615C15.7432 19.9187 16.802 19.9219 16.8498 19.8615C16.8689 19.8424 16.9356 19.6805 16.9992 19.5058C17.066 19.3311 17.1327 19.1691 17.1518 19.1469C17.1741 19.1183 17.3171 19.1087 17.7401 19.1151L18.2966 19.1246L18.4206 19.474C18.4905 19.6646 18.5636 19.8424 18.5859 19.8647C18.6177 19.8965 18.7385 19.9028 19.1551 19.8838C19.4476 19.871 19.6861 19.852 19.6861 19.8361C19.6861 19.8234 19.6161 19.6233 19.5303 19.3883C19.4476 19.1564 19.3109 18.7784 19.2282 18.5529C19.1456 18.3243 18.9039 17.654 18.6876 17.0602L18.2934 15.9802L17.4443 15.9707L16.5953 15.9644L16.6621 16.0564ZM17.8704 17.959C17.9404 18.1686 18.0008 18.3464 18.0008 18.356C18.0008 18.3687 17.8736 18.3782 17.7147 18.3782C17.5589 18.3782 17.4284 18.3687 17.4284 18.3528C17.4284 18.2989 17.6924 17.5842 17.7147 17.5842C17.7274 17.5842 17.7973 17.7525 17.8704 17.959Z" fill="white"/>
<path d="M19.4317 15.9834C19.4317 15.993 19.5112 16.0882 19.6066 16.193C19.9436 16.5646 19.9247 16.4439 19.9342 18.2671C19.9405 19.3977 19.9532 19.8583 19.9786 19.8742C19.9977 19.8869 20.1885 19.8933 20.3984 19.8869C20.6115 19.8806 20.8499 19.8742 20.9358 19.8742L21.0852 19.871V18.6958C21.0852 18.0479 21.098 17.5207 21.1107 17.5207C21.1266 17.5207 21.3841 17.816 21.6863 18.1749C21.9883 18.5338 22.2458 18.8166 22.2617 18.8007C22.2744 18.788 22.4525 18.5751 22.6592 18.3305C23.2316 17.654 23.3492 17.5207 23.3779 17.5207C23.3938 17.5207 23.4065 18.0479 23.4065 18.6894V19.8615L23.9375 19.8838C24.3795 19.8996 24.4781 19.8965 24.5035 19.8615C24.5322 19.8202 24.5416 18.591 24.5226 16.4789L24.5195 15.9644H24.0012H23.4796L22.8946 16.6504C22.5734 17.0252 22.3063 17.346 22.2999 17.365C22.2935 17.3809 22.2713 17.3936 22.249 17.3936C22.2268 17.3936 21.9342 17.0729 21.6003 16.679L20.9867 15.9644H20.2108C19.7815 15.9644 19.4317 15.9739 19.4317 15.9834Z" fill="white"/>
<path d="M24.8691 16.0246C24.885 16.0596 24.9167 16.0977 24.9326 16.1073C24.9517 16.12 25.0122 16.2152 25.0663 16.3233C25.1552 16.5011 25.168 16.5582 25.1902 16.933C25.203 17.1586 25.2157 17.9145 25.2157 18.6069C25.2189 19.2993 25.2284 19.871 25.2443 19.8774C25.2571 19.8838 25.505 19.8838 25.8007 19.8774L26.3317 19.8647V17.9145V15.9644H25.5846C24.8532 15.9644 24.8373 15.9644 24.8691 16.0246Z" fill="white"/>
<path d="M0.0348884 21.4559C-0.00326913 21.5321 -0.00644892 21.6179 0.0348884 21.6814C0.0603267 21.7226 0.321069 21.7322 1.95231 21.7449L3.83792 21.7608L4.07958 21.8814C4.41664 22.0467 4.54065 22.1991 4.87771 22.8502C5.10347 23.2854 5.19251 23.4251 5.32288 23.549C5.53593 23.7491 5.74897 23.8697 6.00971 23.9428C6.21005 23.9969 6.53121 23.9999 13.1706 23.9999H20.1249L20.341 23.9333C20.872 23.7713 21.101 23.5458 21.4667 22.828C21.7878 22.1991 21.9309 22.0276 22.2679 21.8688L22.5001 21.7608L24.3857 21.7449C26.0138 21.7322 26.2745 21.7226 26.3 21.6814C26.3413 21.6179 26.3381 21.5321 26.3 21.4559C26.265 21.3955 26.0838 21.3955 13.1674 21.3955C0.251114 21.3955 0.0698661 21.3955 0.0348884 21.4559ZM8.34368 22.2214C8.35322 22.2308 8.36594 22.2785 8.3723 22.3325L8.38184 22.4277L8.15925 22.4373C8.03842 22.4436 7.92395 22.4595 7.90805 22.4754C7.86353 22.5199 7.94303 22.5961 8.11474 22.6819C8.31507 22.7835 8.39774 22.8947 8.39774 23.063C8.39774 23.2759 8.2292 23.3965 7.9303 23.3965C7.71091 23.3965 7.62505 23.3489 7.64095 23.2345C7.65049 23.1646 7.6632 23.1583 7.84127 23.1583C8.16561 23.1583 8.20695 23.0567 7.9462 22.8979C7.7268 22.7676 7.63459 22.6692 7.61551 22.5358C7.59643 22.415 7.68228 22.2721 7.80629 22.2182C7.87308 22.1896 8.31507 22.1928 8.34368 22.2214ZM8.84291 22.6374C8.85881 23.0885 8.88424 23.1742 9.00825 23.1742C9.04323 23.1742 9.09729 23.1583 9.13227 23.1424C9.18632 23.1107 9.19269 23.0694 9.19269 22.6692C9.19269 22.2403 9.19587 22.2276 9.26582 22.2087C9.30398 22.1991 9.36757 22.1896 9.40891 22.1896H9.48204L9.47251 22.6819L9.46297 23.1742L9.35803 23.2759C9.25946 23.3743 9.24356 23.3806 9.01462 23.3806C8.77931 23.3806 8.76977 23.3775 8.68392 23.2759C8.57581 23.1456 8.55673 23.0408 8.55673 22.5803C8.55673 22.196 8.55991 22.1896 8.74751 22.1991L8.82701 22.2055L8.84291 22.6374ZM10.331 22.2087C10.3851 22.2246 10.401 22.2531 10.401 22.3357V22.4436H10.1625C9.98445 22.4436 9.92403 22.4532 9.92403 22.4849C9.92403 22.5422 10.0067 22.612 10.1689 22.6946C10.3501 22.7867 10.4328 22.8979 10.4328 23.063C10.4328 23.2759 10.2643 23.3965 9.96537 23.3965C9.74597 23.3965 9.66011 23.3489 9.67601 23.2345C9.68555 23.1646 9.69827 23.1583 9.8827 23.1583C10.207 23.1583 10.2293 23.0599 9.94947 22.8788C9.73325 22.7391 9.66965 22.6692 9.64739 22.5294C9.6315 22.4277 9.64421 22.3992 9.74279 22.3007C9.84772 22.196 9.8668 22.1896 10.0576 22.1896C10.1657 22.1896 10.2897 22.1991 10.331 22.2087ZM10.878 22.4277V22.666H11.0688H11.2564L11.2659 22.4341L11.2755 22.2055H11.4027H11.5298V22.793V23.3806H11.4027H11.2755L11.2659 23.1328L11.2564 22.882L11.0751 22.8947L10.8939 22.9042L10.8843 23.1487L10.8748 23.3965H10.754C10.6713 23.3965 10.6236 23.3806 10.6109 23.3457C10.6013 23.3171 10.5918 23.063 10.5918 22.7771C10.5918 22.2055 10.595 22.1928 10.7921 22.1896H10.878V22.4277ZM12.0067 22.793V23.3806H11.8796H11.7524L11.7429 22.8121C11.7333 22.1928 11.7365 22.1832 11.9114 22.196L12.0067 22.2055V22.793ZM13.3105 22.2848C13.4377 22.4024 13.4218 22.5803 13.2723 22.7168L13.1547 22.8248L13.2311 22.9042C13.3296 23.009 13.3582 23.0058 13.3582 22.8884C13.3582 22.7994 13.3678 22.793 13.4695 22.793C13.5935 22.793 13.5998 22.8121 13.5458 23.0313C13.514 23.1551 13.5172 23.1805 13.5777 23.2568C13.6157 23.3044 13.6444 23.3552 13.6444 23.3679C13.6444 23.4061 13.4091 23.4029 13.371 23.3647C13.3487 23.3425 13.3041 23.3425 13.2343 23.3679C13.177 23.387 13.053 23.3965 12.9575 23.3902C12.8208 23.3775 12.7636 23.3552 12.6969 23.2916C12.5791 23.171 12.5791 22.9899 12.7 22.8629L12.789 22.7708L12.7254 22.6628C12.6141 22.4818 12.6619 22.2912 12.8304 22.2182C12.9544 22.1674 13.2247 22.2023 13.3105 22.2848ZM14.8463 22.234C15.0054 22.3166 15.0562 22.3992 15.053 22.5739C15.0498 22.7041 15.0339 22.7518 14.9609 22.828L14.8718 22.9201L14.9895 23.1392C15.053 23.2568 15.0976 23.3647 15.0848 23.3743C15.0753 23.387 15.0085 23.3965 14.9418 23.3965C14.8241 23.3965 14.8178 23.3902 14.7096 23.1742C14.6302 23.0122 14.5793 22.9518 14.5347 22.9518C14.4806 22.9518 14.4744 22.9772 14.4648 23.1646L14.4553 23.3806H14.328H14.2008L14.1913 22.8153C14.1849 22.2562 14.1849 22.2499 14.2549 22.2214C14.3694 22.1769 14.751 22.1832 14.8463 22.234ZM15.9338 22.2467C16.0992 22.3262 16.1564 22.4691 16.1564 22.793C16.1564 23.117 16.0992 23.26 15.9338 23.3393C15.7176 23.4474 15.4282 23.3902 15.3138 23.2187C15.2215 23.0758 15.2056 22.6247 15.2884 22.4373C15.3932 22.2055 15.6827 22.1197 15.9338 22.2467ZM16.6334 22.6819L16.6493 23.1583L16.8496 23.1678C17.0627 23.1773 17.0977 23.2187 17.0054 23.3457C16.9387 23.4347 16.5348 23.4061 16.433 23.3075C16.3663 23.2409 16.3631 23.2059 16.3536 22.7327C16.3409 22.1769 16.3377 22.1896 16.538 22.1991L16.6175 22.2055L16.6334 22.6819ZM17.3775 22.2087C17.422 22.2246 17.4284 22.2975 17.4284 22.6819C17.4284 23.1932 17.4188 23.1742 17.6859 23.1742H17.8448L17.8353 23.2759L17.8259 23.3806L17.6223 23.3902C17.2089 23.4092 17.1612 23.3457 17.1485 22.7327C17.1358 22.3198 17.1421 22.2689 17.193 22.2308C17.2567 22.1864 17.3012 22.1801 17.3775 22.2087ZM18.6176 22.2214C18.6812 22.2435 18.7003 22.2721 18.7003 22.3484V22.4436H18.465C18.2805 22.4436 18.2264 22.4532 18.2105 22.4945C18.1978 22.5263 18.2233 22.5612 18.2901 22.5961C18.6017 22.7676 18.6653 22.8216 18.7035 22.9518C18.7829 23.2187 18.5985 23.3965 18.2423 23.3965C18.0008 23.3965 17.9689 23.3775 17.9689 23.2473V23.1328L18.1566 23.1551C18.306 23.171 18.3537 23.1646 18.3918 23.1265C18.4681 23.0535 18.43 22.9963 18.2201 22.8693C18.1184 22.8089 18.0103 22.7264 17.9848 22.6882C17.8767 22.5326 17.9689 22.2435 18.1375 22.2119C18.2742 22.1864 18.5381 22.1896 18.6176 22.2214Z" fill="white"/>
<path d="M12.8972 22.4437C12.8749 22.4787 12.9671 22.6661 13.0085 22.6661C13.0562 22.6661 13.1643 22.5041 13.1452 22.4565C13.1261 22.4056 12.9289 22.3929 12.8972 22.4437Z" fill="white"/>
<g filter="url(#filter1_d_18_445)">
<path d="M15.5523 22.5041C15.5364 22.539 15.5205 22.6756 15.5205 22.8058C15.5205 23.0059 15.5332 23.0599 15.5841 23.1107C15.6604 23.1869 15.7049 23.1901 15.8004 23.1234C15.8639 23.079 15.8703 23.0472 15.8703 22.7963C15.8703 22.6247 15.8576 22.5073 15.8321 22.4818C15.7686 22.4183 15.5905 22.4342 15.5523 22.5041Z" fill="white"/>
</g>
<path d="M14.4712 22.5865C14.4712 22.7263 14.4744 22.7295 14.5697 22.7295C14.7034 22.7295 14.7891 22.6755 14.7891 22.5929C14.7891 22.4881 14.7288 22.4436 14.592 22.4436H14.4712V22.5865Z" fill="white"/>
<path d="M12.9036 22.9741C12.8591 23.0154 12.8845 23.1424 12.9418 23.1742C13.018 23.2124 13.1262 23.2155 13.1485 23.1774C13.1612 23.1615 13.1294 23.1043 13.0849 23.0504C13.0053 22.955 12.945 22.9296 12.9036 22.9741Z" fill="white"/>
<g filter="url(#filter2_d_18_445)">
<path d="M60.4908 8.38475C60.7961 8.76395 61.1014 9.21741 61.1592 9.39065C61.2501 9.6299 61.2831 10.6438 61.3161 13.785L61.3657 17.8663H62.8102H64.2547L64.2957 15.1866L64.337 12.5071L65.8146 14.2384C68.1257 16.9347 68.9594 17.6766 69.8508 17.7921L70.239 17.8498V12.7628V7.68408H68.7532H67.2673L67.2508 9.84411L67.2261 12.0124L65.3689 9.84411L63.5117 7.68408H61.7206H59.9294L60.4908 8.38475Z" fill="white"/>
<path d="M43.6606 7.6512C41.6879 8.07165 40.7387 9.06106 40.8873 10.5122C41.0358 11.9303 41.8282 12.6227 44.354 13.5379C46.2029 14.2058 46.5496 14.4365 46.5496 14.9642C46.5496 16.0031 44.321 16.0114 42.959 14.9807C42.6206 14.717 42.7774 14.6345 41.366 15.8876C40.3012 16.8275 40.3012 16.7368 41.3165 17.2067C42.6124 17.8087 43.933 18.0476 45.5508 17.9651C47.4493 17.8747 48.7617 17.1985 49.2899 16.0526C49.4385 15.7144 49.4715 15.5002 49.4715 14.8982C49.4633 13.9666 49.2652 13.4554 48.6956 12.9277C48.1839 12.4494 47.7217 12.2187 45.9883 11.592C44.4118 11.0234 43.8587 10.7429 43.7267 10.4379C43.4213 9.77822 44.5521 9.31652 45.7242 9.61351C46.2937 9.76172 46.9375 10.1244 47.1109 10.4049C47.1686 10.4957 47.2429 10.5699 47.2842 10.5699C47.3832 10.5699 49.2239 8.92081 49.2569 8.80531C49.2899 8.6736 48.481 8.20365 47.8207 7.9644C46.6569 7.5357 44.8162 7.39545 43.6606 7.6512Z" fill="white"/>
<path d="M29.9256 7.86529C29.9504 7.97254 30.1568 8.54974 30.3796 9.15169C30.6025 9.74511 30.7841 10.2646 30.7841 10.3058C30.7841 10.3388 30.8171 10.4131 30.8584 10.4791C30.9244 10.5781 30.9822 10.5451 31.1555 10.3306C31.56 9.86061 31.9562 9.71211 32.9549 9.67911L33.8381 9.6464V13.7275C33.8381 17.5528 33.8463 17.8168 33.9867 17.8498C34.061 17.8746 34.2178 17.8828 34.3333 17.8663C34.4489 17.8498 35.0514 17.8333 35.6787 17.8333L36.8096 17.8251V13.7522V9.67911L37.082 9.6299C37.4534 9.5639 38.5677 9.71211 38.8979 9.87711C39.0382 9.95135 39.2858 10.1491 39.4261 10.3058C39.5747 10.4708 39.7068 10.586 39.7233 10.5616C39.7398 10.5451 39.8553 10.2481 39.9709 9.91011C40.0864 9.57215 40.3093 8.92895 40.4744 8.48374L40.7715 7.68408H35.3156H29.8679L29.9256 7.86529Z" fill="black"/>
<path d="M29.9256 7.86529C29.9504 7.97254 30.1568 8.54974 30.3796 9.15169C30.6025 9.74511 30.7841 10.2646 30.7841 10.3058C30.7841 10.3388 30.8171 10.4131 30.8584 10.4791C30.9244 10.5781 30.9822 10.5451 31.1555 10.3306C31.56 9.86061 31.9562 9.71211 32.9549 9.67911L33.8381 9.6464V13.7275C33.8381 17.5528 33.8463 17.8168 33.9867 17.8498C34.061 17.8746 34.2178 17.8828 34.3333 17.8663C34.4489 17.8498 35.0514 17.8333 35.6787 17.8333L36.8096 17.8251V13.7522V9.67911L37.082 9.6299C37.4534 9.5639 38.5677 9.71211 38.8979 9.87711C39.0382 9.95135 39.2858 10.1491 39.4261 10.3058C39.5747 10.4708 39.7068 10.586 39.7233 10.5616C39.7398 10.5451 39.8553 10.2481 39.9709 9.91011C40.0864 9.57215 40.3093 8.92895 40.4744 8.48374L40.7715 7.68408H35.3156H29.8679L29.9256 7.86529Z" fill="white"/>
<path d="M49.8179 7.7828C49.8592 7.84054 50.0078 8.04679 50.1563 8.2445C50.6681 8.91245 50.6928 9.12695 50.7506 12.5483C50.8002 15.4836 50.8084 15.6565 50.9817 16.0278C51.5265 17.2066 52.8142 17.8663 54.8034 17.965C57.0898 18.0723 58.7325 17.3799 59.4009 16.0278L59.6322 15.5578L59.6569 11.6167L59.6817 7.68408L58.1876 7.70058L56.6936 7.72533L56.6771 11.3117C56.6606 14.5271 56.6441 14.9229 56.5202 15.1618C56.3139 15.5331 55.8764 15.772 55.3151 15.8215C54.7374 15.871 54.3494 15.7225 53.9862 15.3103L53.7304 15.0136V11.353V7.68408H51.7411C50.1811 7.68408 49.7684 7.70883 49.8179 7.7828Z" fill="white"/>
<path d="M73.1194 7.92304C73.6643 8.68174 73.7466 9.3329 73.4082 10.2646C73.2926 10.5863 73.0947 11.155 72.9625 11.518C72.8386 11.8807 72.2858 13.4222 71.7327 14.9394C71.1797 16.4565 70.7339 17.7426 70.7339 17.8003C70.7339 17.9488 73.4826 17.9571 73.6065 17.8003C73.656 17.7508 73.8292 17.3304 73.9944 16.8769C74.1678 16.4235 74.341 16.003 74.3905 15.9453C74.4483 15.871 74.8197 15.8463 75.9176 15.8628L77.3621 15.8875L77.684 16.7944C77.8654 17.2891 78.0553 17.7508 78.1132 17.8086C78.1957 17.8911 78.5093 17.9076 79.5907 17.8581C80.35 17.8251 80.9691 17.7756 80.9691 17.7343C80.9691 17.7013 80.7874 17.1819 80.5647 16.572C80.35 15.97 79.9951 14.9889 79.7804 14.4034C79.5659 13.81 78.9385 12.0701 78.3772 10.5286L77.3539 7.72533L75.1498 7.70058L72.946 7.68408L73.1194 7.92304ZM76.256 12.8618C76.4377 13.4057 76.5943 13.8674 76.5943 13.8922C76.5943 13.9252 76.2642 13.9499 75.8515 13.9499C75.4471 13.9499 75.1085 13.9252 75.1085 13.8839C75.1085 13.744 75.7937 11.8889 75.8515 11.8889C75.8846 11.8889 76.066 12.3259 76.256 12.8618Z" fill="white"/>
<path d="M80.3087 7.73358C80.3087 7.75833 80.5152 8.00554 80.7627 8.2775C81.6376 9.24216 81.5883 8.92895 81.6131 13.6615C81.6293 16.5964 81.6624 17.7921 81.7285 17.8333C81.778 17.8663 82.2733 17.8828 82.8181 17.8663C83.3712 17.8498 83.9901 17.8333 84.2131 17.8333L84.601 17.8251V14.7744C84.601 13.0925 84.634 11.7239 84.667 11.7239C84.7083 11.7239 85.3768 12.4906 86.1611 13.4222C86.9452 14.3539 87.6136 15.0878 87.6549 15.0466C87.6879 15.0136 88.1501 14.4612 88.6867 13.8262C90.1725 12.0701 90.4778 11.7239 90.5522 11.7239C90.5935 11.7239 90.6265 13.0925 90.6265 14.7579V17.8003L92.0049 17.8581C93.1521 17.8993 93.4082 17.8911 93.4742 17.8003C93.5486 17.6931 93.5731 14.5024 93.5238 9.0197L93.5155 7.68408H92.1701H90.8162L89.2976 9.4649C88.464 10.4378 87.7705 11.2705 87.754 11.32C87.7375 11.3612 87.6797 11.3942 87.6218 11.3942C87.5643 11.3942 86.8048 10.5616 85.9381 9.53915L84.3452 7.68408H82.3311C81.2167 7.68408 80.3087 7.70883 80.3087 7.73358Z" fill="white"/>
<path d="M94.4232 7.84054C94.4645 7.93129 94.5468 8.03029 94.5881 8.05504C94.6376 8.08804 94.7946 8.33525 94.935 8.61574C95.1659 9.07745 95.199 9.22566 95.2568 10.1986C95.2898 10.784 95.3229 12.7463 95.3229 14.5436C95.3311 16.341 95.3559 17.8251 95.3972 17.8416C95.4302 17.8581 96.0739 17.8581 96.8414 17.8416L98.2199 17.8086V12.7463V7.68408H96.2804C94.3819 7.68408 94.3406 7.68408 94.4232 7.84054Z" fill="white"/>
</g>
<defs>
<filter id="filter0_d_18_445" x="7.58087" y="15.9644" width="11.9716" height="11.9226" filterUnits="userSpaceOnUse" color-interpolation-filters="sRGB">
<feFlood flood-opacity="0" result="BackgroundImageFix"/>
<feColorMatrix in="SourceAlpha" type="matrix" values="0 0 0 0 0 0 0 0 0 0 0 0 0 0 0 0 0 0 127 0" result="hardAlpha"/>
<feOffset dy="4"/>
<feGaussianBlur stdDeviation="2"/>
<feComposite in2="hardAlpha" operator="out"/>
<feColorMatrix type="matrix" values="0 0 0 0 0 0 0 0 0 0 0 0 0 0 0 0 0 0 0.25 0"/>
<feBlend mode="normal" in2="BackgroundImageFix" result="effect1_dropShadow_18_445"/>
<feBlend mode="normal" in="SourceGraphic" in2="effect1_dropShadow_18_445" result="shape"/>
</filter>
<filter id="filter1_d_18_445" x="11.5205" y="22.4419" width="8.34979" height="8.729" filterUnits="userSpaceOnUse" color-interpolation-filters="sRGB">
<feFlood flood-opacity="0" result="BackgroundImageFix"/>
<feColorMatrix in="SourceAlpha" type="matrix" values="0 0 0 0 0 0 0 0 0 0 0 0 0 0 0 0 0 0 127 0" result="hardAlpha"/>
<feOffset dy="4"/>
<feGaussianBlur stdDeviation="2"/>
<feComposite in2="hardAlpha" operator="out"/>
<feColorMatrix type="matrix" values="0 0 0 0 0 0 0 0 0 0 0 0 0 0 0 0 0 0 0.25 0"/>
<feBlend mode="normal" in2="BackgroundImageFix" result="effect1_dropShadow_18_445"/>
<feBlend mode="normal" in="SourceGraphic" in2="effect1_dropShadow_18_445" result="shape"/>
</filter>
<filter id="filter2_d_18_445" x="25.8679" y="7.52344" width="76.352" height="18.4575" filterUnits="userSpaceOnUse" color-interpolation-filters="sRGB">
<feFlood flood-opacity="0" result="BackgroundImageFix"/>
<feColorMatrix in="SourceAlpha" type="matrix" values="0 0 0 0 0 0 0 0 0 0 0 0 0 0 0 0 0 0 127 0" result="hardAlpha"/>
<feOffset dy="4"/>
<feGaussianBlur stdDeviation="2"/>
<feComposite in2="hardAlpha" operator="out"/>
<feColorMatrix type="matrix" values="0 0 0 0 0 0 0 0 0 0 0 0 0 0 0 0 0 0 0.25 0"/>
<feBlend mode="normal" in2="BackgroundImageFix" result="effect1_dropShadow_18_445"/>
<feBlend mode="normal" in="SourceGraphic" in2="effect1_dropShadow_18_445" result="shape"/>
</filter>
</defs>
</svg>